<?xml version="1.0" encoding="UTF-8" standalone="no"?>
<!DOCTYPE svg PUBLIC "-//W3C//DTD SVG 1.1//EN"
 "http://www.w3.org/Graphics/SVG/1.1/DTD/svg11.dtd">
<!-- Generated by graphviz version 5.0.0 (20220707.1540)
 -->
<!-- Title: dependencies Pages: 1 -->
<svg width="471pt" height="247pt"
 viewBox="0.00 0.00 471.00 246.80" xmlns="http://www.w3.org/2000/svg" xmlns:xlink="http://www.w3.org/1999/xlink">
<g id="graph0" class="graph" transform="scale(1 1) rotate(0) translate(4 242.8)">
<title>dependencies</title>
<polygon fill="white" stroke="transparent" points="-4,4 -4,-242.8 467,-242.8 467,4 -4,4"/>
<text text-anchor="middle" x="231.5" y="-8.2" font-family="sans-serif" font-size="14.00">dependencies</text>
<g id="clust1" class="cluster">
<title>cluster_SharedModule</title>
<polygon fill="none" stroke="black" stroke-dasharray="1,5" points="8,-32.8 8,-230.8 455,-230.8 455,-32.8 8,-32.8"/>
</g>
<g id="clust2" class="cluster">
<title>cluster_SharedModule_declarations</title>
<polygon fill="none" stroke="black" points="297,-40.8 297,-92.8 447,-92.8 447,-40.8 297,-40.8"/>
</g>
<g id="clust5" class="cluster">
<title>cluster_SharedModule_exports</title>
<polygon fill="none" stroke="black" points="16,-170.8 16,-222.8 447,-222.8 447,-170.8 16,-170.8"/>
</g>
<g id="clust4" class="cluster">
<title>cluster_SharedModule_imports</title>
<polygon fill="none" stroke="black" points="20,-40.8 20,-92.8 289,-92.8 289,-40.8 20,-40.8"/>
</g>
<!-- SnackbarComponent -->
<g id="node1" class="node">
<title>SnackbarComponent</title>
<polygon fill="#ffffb3" stroke="black" points="438.92,-84.8 305.08,-84.8 305.08,-48.8 438.92,-48.8 438.92,-84.8"/>
<text text-anchor="middle" x="372" y="-62.6" font-family="Times,serif" font-size="14.00">SnackbarComponent</text>
</g>
<!-- SharedModule -->
<g id="node2" class="node">
<title>SharedModule</title>
<polygon fill="#8dd3c7" stroke="black" points="274.43,-149.8 271.43,-153.8 250.43,-153.8 247.43,-149.8 175.57,-149.8 175.57,-113.8 274.43,-113.8 274.43,-149.8"/>
<text text-anchor="middle" x="225" y="-127.6" font-family="Times,serif" font-size="14.00">SharedModule</text>
</g>
<!-- SnackbarComponent&#45;&gt;SharedModule -->
<g id="edge1" class="edge">
<title>SnackbarComponent&#45;&gt;SharedModule</title>
<path fill="none" stroke="black" d="M394.76,-84.82C394.76,-102.17 394.76,-125.8 394.76,-125.8 394.76,-125.8 284.56,-125.8 284.56,-125.8"/>
<polygon fill="black" stroke="black" points="284.56,-122.3 274.56,-125.8 284.56,-129.3 284.56,-122.3"/>
</g>
<!-- AppRoutingModule  -->
<g id="node5" class="node">
<title>AppRoutingModule </title>
<polygon fill="#fb8072" stroke="black" points="439.28,-214.8 306.72,-214.8 306.72,-178.8 439.28,-178.8 439.28,-214.8"/>
<text text-anchor="middle" x="373" y="-192.6" font-family="Times,serif" font-size="14.00">AppRoutingModule </text>
</g>
<!-- SharedModule&#45;&gt;AppRoutingModule  -->
<g id="edge4" class="edge">
<title>SharedModule&#45;&gt;AppRoutingModule </title>
<path fill="none" stroke="black" stroke-dasharray="5,2" d="M274.36,-137.8C309.61,-137.8 350.81,-137.8 350.81,-137.8 350.81,-137.8 350.81,-168.78 350.81,-168.78"/>
<polygon fill="black" stroke="black" points="347.31,-168.78 350.81,-178.78 354.31,-168.78 347.31,-168.78"/>
</g>
<!-- MaterialModule  -->
<g id="node6" class="node">
<title>MaterialModule </title>
<polygon fill="#fb8072" stroke="black" points="289.47,-214.8 178.53,-214.8 178.53,-178.8 289.47,-178.8 289.47,-214.8"/>
<text text-anchor="middle" x="234" y="-192.6" font-family="Times,serif" font-size="14.00">MaterialModule </text>
</g>
<!-- SharedModule&#45;&gt;MaterialModule  -->
<g id="edge5" class="edge">
<title>SharedModule&#45;&gt;MaterialModule </title>
<path fill="none" stroke="black" stroke-dasharray="5,2" d="M226.49,-149.91C226.49,-149.91 226.49,-168.79 226.49,-168.79"/>
<polygon fill="black" stroke="black" points="222.99,-168.79 226.49,-178.79 229.99,-168.79 222.99,-168.79"/>
</g>
<!-- SnackbarComponent  -->
<g id="node7" class="node">
<title>SnackbarComponent </title>
<polygon fill="#fb8072" stroke="black" points="160.42,-214.8 23.58,-214.8 23.58,-178.8 160.42,-178.8 160.42,-214.8"/>
<text text-anchor="middle" x="92" y="-192.6" font-family="Times,serif" font-size="14.00">SnackbarComponent </text>
</g>
<!-- SharedModule&#45;&gt;SnackbarComponent  -->
<g id="edge6" class="edge">
<title>SharedModule&#45;&gt;SnackbarComponent </title>
<path fill="none" stroke="black" stroke-dasharray="5,2" d="M175.61,-137.8C164.81,-137.8 156.54,-137.8 156.54,-137.8 156.54,-137.8 156.54,-168.78 156.54,-168.78"/>
<polygon fill="black" stroke="black" points="153.04,-168.78 156.54,-178.78 160.04,-168.78 153.04,-168.78"/>
</g>
<!-- AppRoutingModule -->
<g id="node3" class="node">
<title>AppRoutingModule</title>
<polygon fill="#8dd3c7" stroke="black" points="281.28,-84.8 278.28,-88.8 257.28,-88.8 254.28,-84.8 152.72,-84.8 152.72,-48.8 281.28,-48.8 281.28,-84.8"/>
<text text-anchor="middle" x="217" y="-62.6" font-family="Times,serif" font-size="14.00">AppRoutingModule</text>
</g>
<!-- AppRoutingModule&#45;&gt;SharedModule -->
<g id="edge2" class="edge">
<title>AppRoutingModule&#45;&gt;SharedModule</title>
<path fill="none" stroke="black" d="M225,-84.91C225,-84.91 225,-103.79 225,-103.79"/>
<polygon fill="black" stroke="black" points="221.5,-103.79 225,-113.79 228.5,-103.79 221.5,-103.79"/>
</g>
<!-- MaterialModule -->
<g id="node4" class="node">
<title>MaterialModule</title>
<polygon fill="#8dd3c7" stroke="black" points="134.47,-84.8 131.47,-88.8 110.47,-88.8 107.47,-84.8 27.53,-84.8 27.53,-48.8 134.47,-48.8 134.47,-84.8"/>
<text text-anchor="middle" x="81" y="-62.6" font-family="Times,serif" font-size="14.00">MaterialModule</text>
</g>
<!-- MaterialModule&#45;&gt;SharedModule -->
<g id="edge3" class="edge">
<title>MaterialModule&#45;&gt;SharedModule</title>
<path fill="none" stroke="black" d="M81,-84.82C81,-102.17 81,-125.8 81,-125.8 81,-125.8 165.44,-125.8 165.44,-125.8"/>
<polygon fill="black" stroke="black" points="165.44,-129.3 175.44,-125.8 165.44,-122.3 165.44,-129.3"/>
</g>
</g>
</svg>
