<?xml version="1.0" encoding="utf-8"?>
<!-- Generator: Adobe Illustrator 25.0.1, SVG Export Plug-In . SVG Version: 6.00 Build 0)  -->
<svg version="1.1" id="Calque_1" xmlns="http://www.w3.org/2000/svg" xmlns:xlink="http://www.w3.org/1999/xlink" x="0px" y="0px"
	 viewBox="0 0 119.67 37.28" style="enable-background:new 0 0 119.67 37.28;" xml:space="preserve">
<style type="text/css">
	.st0{fill:#FFFFFF;stroke:#000000;stroke-width:0.8556;stroke-linecap:round;stroke-linejoin:round;stroke-miterlimit:10;}
	.st1{fill:none;stroke:#000000;stroke-width:0.4278;stroke-linecap:round;stroke-linejoin:round;stroke-miterlimit:10;}
	.st2{fill:none;stroke:#000000;stroke-width:0.8556;stroke-linecap:round;stroke-linejoin:round;stroke-miterlimit:10;}
</style>
<g>
	<g>
		<path class="st0" d="M20.17,25.91l-13.63-3c-0.3-0.07-0.49-0.36-0.42-0.66l4.17-18.97c0.07-0.3,0.36-0.49,0.66-0.42l10.55,2.32
			l2.78,4.64l-3.44,15.67C20.76,25.79,20.47,25.98,20.17,25.91z"/>
		<polygon class="st0" points="20.56,8.89 24.27,9.82 21.49,5.18 		"/>
		<path d="M14.32,11.76l1.08-0.37c0.02-0.73-0.24-1.32-0.69-1.42c-0.56-0.12-1.18,0.58-1.4,1.57c-0.22,0.99,0.06,1.89,0.61,2.01
			c0.45,0.1,0.95-0.35,1.24-1.05L14.32,11.76z"/>
		<path d="M17.27,12.41l1.08-0.37c0.02-0.73-0.24-1.32-0.69-1.42c-0.56-0.12-1.18,0.58-1.4,1.57c-0.22,0.99,0.06,1.89,0.61,2.01
			c0.45,0.1,0.95-0.35,1.24-1.05L17.27,12.41z"/>
		<path d="M10.62,15.94c0.29,0.41,1.81,2.56,4.54,1.78c3.09-0.81,5.57-0.5,4.61,1.19c-1,1.77-7.35,0.54-9.49-2.61
			C10.05,15.91,10.33,15.54,10.62,15.94z"/>
		<polyline class="st1" points="25.31,11.76 21.74,27.61 7.45,24.57 		"/>
		<path class="st2" d="M6.1,22.81c0.03-0.28-1.42,2.37,1.86,3.29l14.73,3.14l3.41-15.02"/>
	</g>
	<g>
		<path d="M35.09,9.62c0.24,0,0.44,0.07,0.61,0.21c0.16,0.14,0.27,0.35,0.32,0.62c0.1,0.54,0.21,1.12,0.33,1.74
			c0.13,0.61,0.25,1.22,0.38,1.82s0.25,1.16,0.38,1.69c0.13,0.53,0.24,0.98,0.33,1.34c0.13,0.51,0.27,0.96,0.41,1.35
			c0.14,0.39,0.27,0.74,0.39,1.05c0.12,0.31,0.22,0.58,0.29,0.83c0.07,0.25,0.11,0.49,0.11,0.73s-0.03,0.46-0.1,0.67
			c-0.07,0.21-0.24,0.31-0.53,0.31c-0.27,0-0.48-0.07-0.63-0.2c-0.16-0.13-0.29-0.32-0.4-0.57c-0.11-0.25-0.21-0.55-0.32-0.91
			c-0.1-0.36-0.23-0.78-0.37-1.25c-0.24-0.05-0.48-0.08-0.71-0.1c-0.23-0.02-0.46-0.03-0.68-0.03c-0.1,0-0.2,0-0.32,0
			s-0.21,0.01-0.3,0.02c-0.11,0.34-0.22,0.66-0.33,0.97c-0.11,0.31-0.22,0.58-0.33,0.82c-0.11,0.24-0.24,0.43-0.38,0.58
			s-0.29,0.22-0.44,0.22c-0.28,0-0.47-0.08-0.59-0.25c-0.11-0.17-0.17-0.39-0.17-0.65c0-0.25,0.03-0.5,0.09-0.75s0.17-0.58,0.34-1
			c-0.35-0.02-0.58-0.08-0.71-0.18c-0.12-0.1-0.18-0.22-0.18-0.38c0-0.3,0.11-0.53,0.34-0.7c0.23-0.16,0.6-0.3,1.1-0.41
			c0.04-0.45,0.1-0.99,0.18-1.64c0.08-0.64,0.18-1.3,0.3-1.96c0.11-0.66,0.23-1.28,0.34-1.85c0.11-0.57,0.22-1.01,0.32-1.31
			c0.1-0.3,0.22-0.51,0.37-0.63S34.88,9.62,35.09,9.62z M35.09,14.19c-0.1,0.59-0.19,1.13-0.27,1.62s-0.19,0.96-0.31,1.4
			c0.12-0.01,0.24-0.02,0.34-0.02s0.23,0,0.36,0c0.12,0,0.24,0,0.34,0s0.22,0.01,0.34,0.02c-0.12-0.31-0.25-0.71-0.38-1.2
			C35.4,15.52,35.25,14.92,35.09,14.19z"/>
		<path d="M39.34,13.95c0.23-0.06,0.42,0.01,0.56,0.19c0.14,0.19,0.23,0.38,0.28,0.59c0.44,1.87,0.74,3.45,0.9,4.75
			c0.16,1.31,0.28,2.32,0.35,3.05c0.15-0.1,0.31-0.18,0.49-0.24c0.18-0.06,0.35-0.11,0.53-0.15c0.24-0.06,0.5-0.09,0.79-0.1
			c0.29-0.01,0.58,0.01,0.84,0.07c0.27,0.06,0.5,0.16,0.7,0.31c0.2,0.15,0.33,0.35,0.39,0.6c0.04,0.16,0.05,0.3,0.05,0.4
			c-0.01,0.1-0.03,0.18-0.08,0.24s-0.11,0.1-0.18,0.13c-0.08,0.02-0.16,0.05-0.25,0.07c-0.38,0.09-0.69,0.12-0.95,0.09
			s-0.54,0-0.85,0.07c-0.26,0.06-0.45,0.13-0.57,0.2c-0.12,0.07-0.23,0.14-0.32,0.21c-0.1,0.07-0.22,0.14-0.36,0.21
			c-0.14,0.08-0.37,0.15-0.67,0.22c-0.22,0.05-0.39,0.06-0.5,0.01s-0.2-0.22-0.28-0.54c-0.12-0.52-0.2-0.95-0.25-1.3
			c-0.09-0.71-0.16-1.35-0.2-1.93c-0.04-0.58-0.09-1.16-0.14-1.75c-0.05-0.59-0.13-1.22-0.23-1.9c-0.1-0.68-0.26-1.47-0.48-2.39
			c-0.05-0.22-0.05-0.45,0-0.69C38.97,14.15,39.11,14,39.34,13.95z"/>
		<path d="M50.26,12.2c0.3,0.04,0.63,0.13,0.99,0.28c0.36,0.15,0.69,0.34,0.98,0.57c0.3,0.23,0.54,0.5,0.72,0.81s0.25,0.65,0.2,1.02
			c-0.04,0.28-0.14,0.63-0.31,1.06c-0.17,0.43-0.42,0.85-0.75,1.25s-0.74,0.73-1.24,0.99c-0.5,0.26-1.09,0.34-1.78,0.26
			c-0.1-0.01-0.19-0.02-0.3-0.04c-0.1-0.01-0.2-0.04-0.31-0.08c-0.01,0.65-0.04,1.26-0.08,1.8c-0.04,0.55-0.1,1.11-0.18,1.68
			c-0.09,0.69-0.19,1.23-0.3,1.61s-0.22,0.66-0.33,0.84c-0.11,0.18-0.21,0.29-0.32,0.32c-0.1,0.04-0.19,0.05-0.26,0.04
			c-0.2-0.03-0.33-0.13-0.37-0.32c-0.04-0.19-0.05-0.43-0.01-0.73c0.02-0.13,0.04-0.29,0.07-0.47c0.03-0.18,0.06-0.37,0.08-0.57
			c0.03-0.26,0.07-0.57,0.11-0.93c0.04-0.36,0.08-0.74,0.11-1.15c0.03-0.41,0.06-0.83,0.09-1.26c0.02-0.43,0.04-0.85,0.04-1.26
			c-0.07-0.22-0.13-0.42-0.17-0.62s-0.05-0.4-0.03-0.59c0.01-0.11,0.04-0.21,0.09-0.32c0.04-0.1,0.13-0.2,0.26-0.29
			c-0.02-0.06-0.02-0.16-0.01-0.28c0.01-0.13,0.02-0.25,0.04-0.37c0.02-0.13,0.03-0.22,0.05-0.27c-0.24-0.13-0.4-0.25-0.48-0.37
			s-0.12-0.25-0.1-0.38c0.01-0.08,0.02-0.16,0.04-0.24c0.02-0.08,0.05-0.16,0.1-0.24c0.05-0.08,0.13-0.19,0.24-0.31
			c0.11-0.12,0.25-0.27,0.43-0.44c0.09-0.61,0.21-1.03,0.35-1.28c0.15-0.24,0.33-0.35,0.54-0.32c0.17,0.02,0.29,0.09,0.38,0.2
			c0.09,0.11,0.15,0.31,0.19,0.58c0.17-0.09,0.37-0.15,0.6-0.19C49.9,12.18,50.1,12.18,50.26,12.2z M50.07,13.43
			c-0.29-0.04-0.53,0.01-0.73,0.13c-0.2,0.12-0.36,0.28-0.49,0.47c-0.13,0.19-0.22,0.4-0.28,0.64c-0.06,0.24-0.1,0.44-0.12,0.62
			c-0.03,0.25-0.06,0.46-0.07,0.63c-0.02,0.17-0.02,0.31-0.02,0.44c0,0.12,0.01,0.22,0.03,0.3c0.02,0.08,0.04,0.17,0.07,0.25
			c0.46,0.03,0.88,0,1.28-0.1s0.74-0.25,1.03-0.43s0.53-0.41,0.71-0.68c0.18-0.26,0.29-0.54,0.32-0.82
			c0.02-0.16-0.04-0.31-0.17-0.48s-0.29-0.31-0.48-0.45c-0.19-0.14-0.38-0.26-0.58-0.35S50.2,13.45,50.07,13.43z"/>
		<path d="M54.8,15.63c0.32,0.04,0.5,0.22,0.54,0.52c0.04,0.3,0.02,0.72-0.05,1.26c-0.06,0.44-0.13,0.91-0.21,1.41
			c-0.08,0.5-0.16,1.02-0.26,1.55c0.22,0.02,0.51,0.03,0.88,0.03c0.37,0.01,0.75,0.01,1.16,0.02c0.4,0,0.78,0.01,1.15,0.01
			s0.65,0.01,0.86,0.01c0.03-0.13,0.05-0.26,0.07-0.38s0.03-0.25,0.05-0.39c0.04-0.27,0.07-0.57,0.09-0.9
			c0.02-0.32,0.05-0.63,0.07-0.93c0.02-0.29,0.04-0.55,0.06-0.78c0.02-0.22,0.03-0.37,0.04-0.44c0.03-0.2,0.11-0.4,0.24-0.59
			c0.13-0.19,0.33-0.27,0.58-0.23c0.11,0.01,0.21,0.04,0.32,0.07c0.11,0.03,0.2,0.08,0.28,0.15c0.08,0.07,0.15,0.16,0.19,0.29
			c0.04,0.13,0.05,0.29,0.03,0.48c-0.05,0.35-0.08,0.66-0.11,0.94c-0.03,0.28-0.05,0.57-0.07,0.86c-0.02,0.29-0.04,0.6-0.08,0.92
			s-0.07,0.7-0.13,1.11c0.27,0.06,0.46,0.16,0.58,0.31s0.15,0.37,0.12,0.65c-0.03,0.24-0.1,0.43-0.2,0.57
			c-0.1,0.14-0.25,0.19-0.44,0.17c-0.05-0.01-0.09-0.01-0.13-0.02c-0.04-0.01-0.09-0.02-0.15-0.06c-0.13,1-0.27,1.95-0.41,2.85
			c-0.14,0.9-0.32,1.78-0.53,2.66c-0.06,0.24-0.14,0.45-0.24,0.65c-0.1,0.2-0.28,0.28-0.52,0.25c-0.13-0.02-0.26-0.04-0.37-0.08
			s-0.22-0.1-0.3-0.19c-0.08-0.1-0.15-0.23-0.19-0.39c-0.04-0.16-0.04-0.39,0-0.68c0.07-0.53,0.21-1.24,0.41-2.13
			s0.39-1.96,0.55-3.19c-0.8-0.03-1.54-0.04-2.22-0.03C55.76,21.99,55.15,22,54.6,22c-0.03,0.26-0.09,0.61-0.17,1.05
			c-0.08,0.44-0.17,0.91-0.28,1.4c-0.11,0.5-0.23,1-0.37,1.5c-0.14,0.5-0.29,0.96-0.46,1.35s-0.35,0.72-0.54,0.96
			c-0.19,0.24-0.39,0.35-0.61,0.32c-0.13-0.02-0.23-0.07-0.29-0.16c-0.06-0.09-0.1-0.19-0.12-0.3c-0.02-0.11-0.03-0.23-0.03-0.36
			c0-0.13,0.01-0.24,0.03-0.33c0.04-0.13,0.07-0.25,0.09-0.37s0.05-0.24,0.09-0.35c0.05-0.18,0.13-0.45,0.24-0.82
			s0.24-0.78,0.36-1.24c0.13-0.46,0.25-0.93,0.37-1.43c0.12-0.49,0.21-0.97,0.27-1.42c-0.23-0.1-0.39-0.22-0.47-0.35
			s-0.12-0.25-0.11-0.36c0.04-0.3,0.11-0.5,0.21-0.59s0.3-0.16,0.58-0.2c0.21-1.61,0.41-2.81,0.59-3.59
			C54.19,15.95,54.45,15.58,54.8,15.63z"/>
		<path d="M63.34,10.3c0.24-0.05,0.45-0.02,0.63,0.08c0.19,0.1,0.33,0.29,0.43,0.55c0.2,0.51,0.42,1.06,0.67,1.64
			s0.49,1.15,0.73,1.71c0.24,0.56,0.48,1.09,0.71,1.58c0.23,0.49,0.43,0.91,0.59,1.25c0.23,0.47,0.45,0.88,0.66,1.24
			c0.21,0.36,0.41,0.67,0.59,0.95s0.33,0.53,0.45,0.76c0.12,0.23,0.2,0.46,0.25,0.7c0.05,0.24,0.06,0.46,0.03,0.68
			c-0.02,0.21-0.18,0.35-0.46,0.41c-0.26,0.05-0.48,0.03-0.66-0.07c-0.18-0.1-0.35-0.26-0.5-0.48c-0.16-0.22-0.32-0.5-0.49-0.83
			c-0.17-0.33-0.38-0.72-0.61-1.15c-0.25,0-0.49,0.02-0.72,0.04c-0.23,0.03-0.46,0.06-0.67,0.11c-0.09,0.02-0.2,0.04-0.31,0.06
			c-0.11,0.02-0.21,0.05-0.29,0.08c-0.04,0.35-0.08,0.69-0.13,1.01c-0.05,0.32-0.1,0.61-0.17,0.87s-0.15,0.47-0.26,0.64
			c-0.11,0.17-0.24,0.27-0.39,0.3c-0.27,0.05-0.48,0.01-0.62-0.13c-0.15-0.14-0.25-0.34-0.3-0.6c-0.05-0.25-0.07-0.5-0.06-0.75
			c0.01-0.25,0.06-0.6,0.14-1.05c-0.35,0.05-0.59,0.03-0.73-0.04c-0.14-0.07-0.22-0.18-0.25-0.34c-0.06-0.3,0.01-0.55,0.2-0.75
			s0.53-0.41,1-0.62c-0.05-0.44-0.1-0.99-0.15-1.64c-0.04-0.65-0.08-1.31-0.09-1.98c-0.02-0.67-0.03-1.3-0.03-1.88
			c0-0.58,0.02-1.03,0.05-1.35c0.04-0.31,0.11-0.54,0.24-0.69C62.96,10.44,63.13,10.34,63.34,10.3z M64.25,14.78
			c0.02,0.6,0.04,1.14,0.05,1.64c0.01,0.5,0,0.97-0.03,1.43c0.12-0.04,0.23-0.06,0.33-0.09c0.11-0.02,0.22-0.05,0.35-0.07
			c0.12-0.02,0.23-0.05,0.34-0.07s0.22-0.04,0.34-0.05c-0.18-0.28-0.38-0.65-0.61-1.1C64.8,16.02,64.54,15.46,64.25,14.78z"/>
		<path d="M72.9,15.33c0.23,0.02,0.49,0.07,0.78,0.15c0.29,0.08,0.55,0.2,0.79,0.35c0.24,0.15,0.44,0.35,0.59,0.6
			s0.22,0.54,0.19,0.89c-0.03,0.32-0.14,0.63-0.34,0.92c-0.2,0.29-0.52,0.51-0.96,0.67c0.87,0.34,1.53,0.82,1.99,1.43
			s0.66,1.26,0.6,1.94c-0.06,0.64-0.2,1.17-0.44,1.6c-0.24,0.43-0.54,0.79-0.91,1.07c-0.37,0.28-0.8,0.5-1.29,0.65
			c-0.49,0.15-1.02,0.26-1.58,0.33c-0.03,0.31-0.09,0.55-0.19,0.72s-0.25,0.24-0.46,0.22c-0.24-0.02-0.45-0.14-0.63-0.36
			c-0.18-0.22-0.32-0.49-0.41-0.82c-0.09-0.31-0.18-0.7-0.26-1.16c-0.08-0.46-0.15-0.96-0.22-1.51c-0.07-0.54-0.13-1.11-0.19-1.7
			c-0.06-0.59-0.1-1.17-0.14-1.74c-0.04-0.57-0.07-1.11-0.09-1.62s-0.04-0.97-0.04-1.36c0.11-0.18,0.28-0.36,0.51-0.53
			c0.23-0.17,0.49-0.31,0.78-0.43c0.29-0.12,0.61-0.21,0.94-0.27C72.25,15.32,72.58,15.31,72.9,15.33z M72.17,16.63
			c-0.18-0.02-0.37-0.01-0.56,0.02s-0.36,0.11-0.5,0.23c0.01,0.34,0.02,0.66,0.05,0.98c0.03,0.31,0.06,0.5,0.1,0.58
			c0.13,0.01,0.3,0.01,0.52,0.01c0.21-0.01,0.42-0.03,0.62-0.07c0.2-0.04,0.38-0.1,0.53-0.18c0.15-0.08,0.23-0.18,0.25-0.31
			c0.04-0.48-0.03-0.8-0.21-0.96C72.8,16.76,72.53,16.66,72.17,16.63z M72.18,19.48c-0.16-0.01-0.31-0.01-0.47,0
			c-0.16,0.02-0.31,0.04-0.44,0.06c0.07,0.47,0.14,0.96,0.21,1.49c0.07,0.53,0.13,1.01,0.19,1.45c0.06,0.44,0.11,0.81,0.16,1.09
			c0.05,0.29,0.09,0.43,0.12,0.44c0.5,0.04,0.94,0.02,1.29-0.06c0.36-0.08,0.65-0.2,0.88-0.34c0.23-0.14,0.4-0.29,0.52-0.45
			c0.12-0.16,0.18-0.29,0.19-0.4c0.02-0.23-0.02-0.52-0.11-0.88c-0.1-0.36-0.26-0.71-0.48-1.05c-0.22-0.34-0.51-0.64-0.85-0.9
			C73.05,19.67,72.65,19.52,72.18,19.48z"/>
		<path d="M81.77,12.85c0.28,0.01,0.48,0.1,0.61,0.28c0.13,0.17,0.19,0.41,0.18,0.71c-0.01,0.17-0.11,0.32-0.3,0.46
			c-0.19,0.14-0.43,0.26-0.7,0.36s-0.57,0.19-0.88,0.26c-0.31,0.07-0.58,0.13-0.81,0.17c0.01,0.1,0.01,0.19,0.01,0.29
			c0,0.1-0.01,0.19-0.01,0.29c-0.01,0.28-0.04,0.54-0.08,0.8s-0.08,0.51-0.13,0.75c0.38-0.03,0.7-0.09,0.97-0.17
			s0.52-0.16,0.73-0.23c0.21-0.08,0.4-0.14,0.57-0.2c0.17-0.06,0.33-0.09,0.5-0.08c0.08,0,0.17,0.04,0.27,0.1
			c0.09,0.06,0.18,0.15,0.27,0.25c0.09,0.1,0.16,0.22,0.21,0.35c0.05,0.14,0.08,0.28,0.07,0.44c-0.01,0.24-0.15,0.43-0.41,0.55
			c-0.26,0.13-0.59,0.24-0.98,0.32c-0.39,0.09-0.81,0.16-1.27,0.21c-0.45,0.05-0.87,0.13-1.25,0.22c-0.02,0.08-0.03,0.22-0.05,0.41
			c-0.02,0.19-0.04,0.4-0.06,0.63c-0.02,0.23-0.04,0.45-0.05,0.68c-0.02,0.22-0.03,0.41-0.03,0.55c0.42-0.01,0.77-0.02,1.05-0.05
			c0.28-0.02,0.52-0.05,0.73-0.08c0.21-0.03,0.39-0.05,0.55-0.08c0.16-0.02,0.33-0.03,0.51-0.03c0.1,0,0.19,0.04,0.29,0.12
			c0.09,0.08,0.18,0.17,0.25,0.27c0.07,0.11,0.13,0.22,0.18,0.34c0.04,0.12,0.06,0.23,0.06,0.33c-0.01,0.18-0.06,0.32-0.15,0.41
			c-0.09,0.09-0.25,0.16-0.48,0.2c-0.23,0.04-0.52,0.05-0.9,0.05c-0.37-0.01-0.85-0.02-1.43-0.05c-0.78-0.03-1.33-0.11-1.63-0.23
			s-0.45-0.29-0.44-0.51c0.02-0.41,0.06-0.84,0.13-1.28c0.07-0.44,0.15-0.91,0.25-1.41c0.09-0.5,0.18-1.03,0.25-1.6
			c0.08-0.57,0.13-1.19,0.15-1.85c0.01-0.16,0-0.29-0.02-0.4s-0.04-0.21-0.06-0.3s-0.04-0.18-0.06-0.27
			c-0.02-0.08-0.03-0.18-0.02-0.29c0.01-0.37,0.08-0.62,0.18-0.75s0.31-0.25,0.6-0.36c0.15-0.07,0.33-0.14,0.53-0.21
			s0.43-0.15,0.66-0.21c0.23-0.06,0.47-0.11,0.72-0.14C81.3,12.86,81.54,12.85,81.77,12.85z M80.25,9.36c0.11,0,0.33,0.08,0.66,0.23
			s0.67,0.34,1.01,0.58c0.34,0.24,0.64,0.52,0.91,0.83s0.39,0.64,0.38,0.97c-0.01,0.17-0.07,0.28-0.19,0.34
			c-0.12,0.06-0.25,0.08-0.38,0.08c-0.28-0.01-0.5-0.1-0.67-0.25c-0.17-0.16-0.31-0.33-0.43-0.51s-0.23-0.36-0.34-0.52
			c-0.11-0.16-0.24-0.25-0.4-0.27c-0.19,0.11-0.34,0.25-0.46,0.4c-0.12,0.15-0.24,0.3-0.34,0.43c-0.11,0.13-0.22,0.25-0.35,0.34
			c-0.12,0.09-0.28,0.13-0.47,0.13c-0.18-0.01-0.32-0.08-0.42-0.23c-0.1-0.15-0.15-0.33-0.14-0.53c0.05-0.38,0.24-0.75,0.55-1.1
			C79.46,9.9,79.83,9.61,80.25,9.36z"/>
		<path d="M88.97,14.65c0.19,0.04,0.39,0.05,0.59,0.03c0.21-0.02,0.42-0.05,0.62-0.08c0.21-0.03,0.42-0.06,0.62-0.08
			s0.42-0.01,0.63,0.03c0.22,0.04,0.39,0.17,0.5,0.37c0.11,0.2,0.14,0.41,0.09,0.64c-0.07,0.34-0.24,0.58-0.53,0.7
			s-0.62,0.19-1.01,0.2c-0.39,0.01-0.8-0.02-1.24-0.07c-0.44-0.06-0.85-0.09-1.23-0.09c-0.11,0.67-0.18,1.4-0.22,2.19
			s-0.08,1.61-0.13,2.44s-0.1,1.66-0.17,2.49c-0.07,0.83-0.17,1.6-0.31,2.32c-0.06,0.31-0.12,0.55-0.17,0.73
			c-0.05,0.18-0.12,0.31-0.2,0.4c-0.08,0.09-0.18,0.14-0.31,0.15c-0.12,0.01-0.29,0-0.49-0.04c-0.25-0.05-0.39-0.16-0.44-0.35
			s-0.04-0.5,0.02-0.96c0-0.05,0.02-0.28,0.06-0.7c0.05-0.42,0.11-0.93,0.18-1.55c0.07-0.62,0.15-1.3,0.24-2.04
			c0.08-0.74,0.17-1.46,0.26-2.16c0.09-0.7,0.17-1.34,0.25-1.92c0.08-0.58,0.15-1.02,0.21-1.33c-0.22-0.11-0.45-0.19-0.68-0.25
			c-0.23-0.06-0.44-0.12-0.62-0.2c-0.19-0.07-0.33-0.17-0.43-0.3c-0.1-0.12-0.12-0.3-0.08-0.54c0.02-0.08,0.05-0.18,0.11-0.3
			c0.05-0.12,0.13-0.22,0.24-0.31c0.1-0.09,0.24-0.16,0.4-0.21c0.16-0.05,0.36-0.05,0.6,0c0.31,0.06,0.55,0.12,0.74,0.18
			c0.18,0.06,0.36,0.12,0.53,0.19c0.17,0.06,0.35,0.13,0.54,0.19C88.36,14.52,88.63,14.59,88.97,14.65z"/>
		<path d="M93.57,12.14c0.11,0,0.27,0.01,0.5,0.02c0.22,0.01,0.47,0.04,0.74,0.07s0.54,0.08,0.82,0.14
			c0.28,0.06,0.53,0.14,0.76,0.24c0.23,0.1,0.42,0.21,0.56,0.34c0.15,0.13,0.22,0.28,0.22,0.45c0,0.21-0.05,0.34-0.14,0.4
			c-0.09,0.06-0.27,0.09-0.55,0.09c-0.11,0-0.23,0-0.35-0.01c-0.13-0.01-0.27-0.02-0.44-0.05c0.07,1.15,0.11,2.28,0.11,3.4
			c0,0.39-0.01,0.75-0.02,1.09c-0.01,0.34-0.02,0.69-0.04,1.04c-0.01,0.35-0.02,0.72-0.04,1.11s-0.02,0.83-0.02,1.31
			c0.29,0,0.53-0.01,0.71-0.04c0.19-0.02,0.35-0.05,0.48-0.08c0.13-0.03,0.25-0.06,0.35-0.08c0.1-0.02,0.22-0.04,0.35-0.04
			c0.08,0,0.18,0.01,0.3,0.03c0.11,0.02,0.22,0.05,0.32,0.11c0.1,0.05,0.18,0.12,0.25,0.21c0.07,0.08,0.11,0.19,0.11,0.31
			c0,0.25-0.14,0.45-0.43,0.6c-0.29,0.14-0.63,0.25-1.03,0.33c-0.4,0.07-0.81,0.12-1.24,0.14c-0.43,0.02-0.77,0.03-1.04,0.03
			c-0.22,0-0.46-0.01-0.74-0.03s-0.54-0.06-0.79-0.12c-0.25-0.06-0.46-0.16-0.63-0.29c-0.17-0.13-0.25-0.31-0.25-0.52
			c0-0.18,0.04-0.32,0.14-0.42c0.09-0.1,0.21-0.17,0.37-0.22c0.16-0.04,0.35-0.07,0.57-0.08c0.22-0.01,0.46-0.02,0.71-0.02v-0.07
			c0-0.45-0.01-0.99-0.04-1.65s-0.05-1.32-0.07-2c-0.02-0.68-0.05-1.34-0.07-1.97s-0.04-1.16-0.04-1.58c0-0.15,0-0.27,0-0.39
			c0-0.11,0.01-0.21,0.02-0.28c-0.42-0.17-0.7-0.34-0.83-0.52s-0.2-0.36-0.2-0.55c0-0.11,0.04-0.21,0.13-0.31
			C93.16,12.19,93.33,12.14,93.57,12.14z"/>
		<path d="M101.64,14.89c0.25-0.08,0.55-0.13,0.89-0.15c0.34-0.02,0.67,0,1,0.07c0.33,0.07,0.63,0.2,0.89,0.38
			c0.26,0.18,0.45,0.44,0.54,0.76c0.07,0.23,0.05,0.41-0.07,0.54c-0.12,0.13-0.27,0.23-0.47,0.28c-0.23,0.07-0.45,0.08-0.65,0.02
			s-0.4-0.13-0.6-0.22c-0.2-0.09-0.39-0.17-0.58-0.23c-0.19-0.06-0.38-0.06-0.58,0c-0.3,0.09-0.55,0.24-0.75,0.45
			c-0.2,0.21-0.36,0.44-0.47,0.7c-0.11,0.26-0.17,0.53-0.19,0.82c-0.02,0.29,0.01,0.56,0.09,0.81c0.08,0.28,0.19,0.49,0.33,0.63
			c0.14,0.14,0.29,0.24,0.47,0.31s0.37,0.11,0.58,0.14c0.21,0.03,0.43,0.07,0.66,0.11c0.2,0.04,0.5,0.12,0.89,0.24
			c0.39,0.12,0.79,0.28,1.21,0.49c0.42,0.21,0.8,0.46,1.16,0.76c0.36,0.3,0.59,0.65,0.72,1.06c0.08,0.28,0.05,0.59-0.09,0.94
			c-0.14,0.35-0.36,0.69-0.64,1.02s-0.59,0.61-0.94,0.87c-0.34,0.26-0.67,0.43-0.98,0.53c-0.28,0.08-0.64,0.14-1.1,0.17
			c-0.46,0.03-0.91,0.02-1.36-0.03c-0.45-0.05-0.86-0.16-1.22-0.31s-0.59-0.38-0.68-0.68c-0.08-0.27-0.09-0.46-0.03-0.6
			s0.23-0.24,0.51-0.32c0.21-0.06,0.44-0.06,0.7,0.02c0.26,0.08,0.53,0.17,0.82,0.27s0.58,0.19,0.88,0.25
			c0.3,0.07,0.59,0.06,0.88-0.03c0.15-0.05,0.33-0.13,0.53-0.25c0.2-0.12,0.39-0.27,0.56-0.44c0.17-0.17,0.3-0.35,0.4-0.54
			c0.1-0.19,0.12-0.37,0.07-0.54c-0.09-0.29-0.27-0.51-0.55-0.67c-0.28-0.16-0.61-0.28-0.97-0.37c-0.37-0.08-0.75-0.16-1.14-0.22
			s-0.76-0.14-1.09-0.24c-0.46-0.15-0.84-0.4-1.15-0.76c-0.3-0.35-0.56-0.87-0.76-1.54c-0.13-0.43-0.17-0.88-0.13-1.35
			c0.04-0.47,0.17-0.92,0.37-1.34c0.2-0.42,0.47-0.79,0.82-1.12C100.75,15.27,101.16,15.03,101.64,14.89z"/>
		<path d="M110.17,12.27c0.27-0.04,0.49,0.02,0.65,0.17c0.16,0.15,0.26,0.37,0.3,0.67c0.02,0.17-0.05,0.33-0.21,0.5
			c-0.17,0.17-0.38,0.33-0.63,0.48c-0.25,0.15-0.53,0.29-0.82,0.41c-0.29,0.12-0.55,0.23-0.77,0.3c0.02,0.09,0.04,0.19,0.06,0.28
			c0.01,0.1,0.03,0.19,0.04,0.29c0.04,0.27,0.06,0.54,0.06,0.8c0,0.26,0.01,0.51,0,0.76c0.36-0.1,0.67-0.21,0.93-0.33
			c0.26-0.13,0.48-0.24,0.68-0.36s0.37-0.21,0.53-0.3s0.31-0.14,0.48-0.17c0.08-0.01,0.18,0.01,0.28,0.05s0.21,0.11,0.31,0.2
			s0.19,0.19,0.27,0.31c0.08,0.12,0.13,0.26,0.15,0.42c0.03,0.24-0.07,0.44-0.31,0.62c-0.24,0.17-0.54,0.33-0.91,0.49
			c-0.37,0.15-0.77,0.3-1.21,0.43c-0.44,0.13-0.83,0.28-1.19,0.43c0,0.08,0.01,0.22,0.02,0.42c0.01,0.19,0.03,0.4,0.05,0.63
			s0.04,0.45,0.06,0.68c0.02,0.22,0.04,0.4,0.06,0.55c0.42-0.08,0.76-0.16,1.03-0.23c0.27-0.07,0.5-0.14,0.7-0.2
			c0.2-0.06,0.37-0.12,0.52-0.17c0.15-0.05,0.32-0.09,0.5-0.11c0.1-0.01,0.2,0.01,0.3,0.07c0.11,0.06,0.2,0.13,0.29,0.23
			s0.17,0.19,0.23,0.31c0.06,0.11,0.1,0.22,0.12,0.31c0.02,0.18,0,0.32-0.08,0.43c-0.08,0.11-0.22,0.2-0.44,0.28
			s-0.51,0.14-0.88,0.2c-0.37,0.06-0.84,0.12-1.41,0.2c-0.78,0.1-1.32,0.12-1.64,0.06c-0.32-0.07-0.49-0.21-0.52-0.42
			c-0.05-0.41-0.08-0.83-0.09-1.28c0-0.45-0.01-0.93,0-1.43s0-1.05-0.03-1.62c-0.02-0.57-0.08-1.19-0.17-1.85
			c-0.02-0.15-0.05-0.28-0.09-0.39c-0.04-0.1-0.08-0.2-0.11-0.29c-0.04-0.09-0.07-0.17-0.11-0.25c-0.04-0.08-0.06-0.17-0.08-0.28
			c-0.05-0.37-0.03-0.63,0.05-0.77c0.08-0.15,0.26-0.3,0.53-0.45c0.13-0.09,0.3-0.19,0.49-0.3c0.19-0.11,0.4-0.22,0.61-0.32
			c0.22-0.1,0.45-0.19,0.68-0.27C109.71,12.35,109.94,12.3,110.17,12.27z"/>
	</g>
</g>
</svg>
