<?xml version="1.0" encoding="UTF-8" standalone="no"?>
<!DOCTYPE svg PUBLIC "-//W3C//DTD SVG 1.1//EN"
 "http://www.w3.org/Graphics/SVG/1.1/DTD/svg11.dtd">
<!-- Generated by graphviz version 5.0.0 (20220707.1540)
 -->
<!-- Title: dependencies Pages: 1 -->
<svg width="720pt" height="247pt"
 viewBox="0.00 0.00 720.00 246.80" xmlns="http://www.w3.org/2000/svg" xmlns:xlink="http://www.w3.org/1999/xlink">
<g id="graph0" class="graph" transform="scale(1 1) rotate(0) translate(4 242.8)">
<title>dependencies</title>
<polygon fill="white" stroke="transparent" points="-4,4 -4,-242.8 716,-242.8 716,4 -4,4"/>
<text text-anchor="middle" x="356" y="-8.2" font-family="sans-serif" font-size="14.00">dependencies</text>
<g id="clust1" class="cluster">
<title>cluster_AppModule</title>
<polygon fill="none" stroke="black" stroke-dasharray="1,5" points="8,-32.8 8,-230.8 704,-230.8 704,-32.8 8,-32.8"/>
</g>
<g id="clust6" class="cluster">
<title>cluster_AppModule_bootstrap</title>
<polygon fill="none" stroke="black" points="254,-170.8 254,-222.8 378,-222.8 378,-170.8 254,-170.8"/>
</g>
<g id="clust7" class="cluster">
<title>cluster_AppModule_providers</title>
<polygon fill="none" stroke="black" points="524,-40.8 524,-92.8 696,-92.8 696,-40.8 524,-40.8"/>
</g>
<g id="clust2" class="cluster">
<title>cluster_AppModule_declarations</title>
<polygon fill="none" stroke="black" points="394,-40.8 394,-92.8 516,-92.8 516,-40.8 394,-40.8"/>
</g>
<g id="clust4" class="cluster">
<title>cluster_AppModule_imports</title>
<polygon fill="none" stroke="black" points="16,-40.8 16,-92.8 386,-92.8 386,-40.8 16,-40.8"/>
</g>
<!-- AppComponent -->
<g id="node1" class="node">
<title>AppComponent</title>
<polygon fill="#ffffb3" stroke="black" points="507.94,-84.8 402.06,-84.8 402.06,-48.8 507.94,-48.8 507.94,-84.8"/>
<text text-anchor="middle" x="455" y="-62.6" font-family="Times,serif" font-size="14.00">AppComponent</text>
</g>
<!-- AppModule -->
<g id="node2" class="node">
<title>AppModule</title>
<polygon fill="#8dd3c7" stroke="black" points="357.66,-149.8 354.66,-153.8 333.66,-153.8 330.66,-149.8 274.34,-149.8 274.34,-113.8 357.66,-113.8 357.66,-149.8"/>
<text text-anchor="middle" x="316" y="-127.6" font-family="Times,serif" font-size="14.00">AppModule</text>
</g>
<!-- AppComponent&#45;&gt;AppModule -->
<g id="edge1" class="edge">
<title>AppComponent&#45;&gt;AppModule</title>
<path fill="none" stroke="black" d="M455,-84.82C455,-102.17 455,-125.8 455,-125.8 455,-125.8 367.7,-125.8 367.7,-125.8"/>
<polygon fill="black" stroke="black" points="367.7,-122.3 357.7,-125.8 367.7,-129.3 367.7,-122.3"/>
</g>
<!-- AppComponent  -->
<g id="node6" class="node">
<title>AppComponent </title>
<polygon fill="#80b1d3" stroke="black" points="370.44,-214.8 261.56,-214.8 261.56,-178.8 370.44,-178.8 370.44,-214.8"/>
<text text-anchor="middle" x="316" y="-192.6" font-family="Times,serif" font-size="14.00">AppComponent </text>
</g>
<!-- AppModule&#45;&gt;AppComponent  -->
<g id="edge5" class="edge">
<title>AppModule&#45;&gt;AppComponent </title>
<path fill="none" stroke="black" stroke-dasharray="1,5" d="M316,-149.91C316,-149.91 316,-168.79 316,-168.79"/>
<polygon fill="black" stroke="black" points="312.5,-168.79 316,-178.79 319.5,-168.79 312.5,-168.79"/>
</g>
<!-- BackOfficeModule -->
<g id="node3" class="node">
<title>BackOfficeModule</title>
<polygon fill="#8dd3c7" stroke="black" points="378.07,-84.8 375.07,-88.8 354.07,-88.8 351.07,-84.8 253.93,-84.8 253.93,-48.8 378.07,-48.8 378.07,-84.8"/>
<text text-anchor="middle" x="316" y="-62.6" font-family="Times,serif" font-size="14.00">BackOfficeModule</text>
</g>
<!-- BackOfficeModule&#45;&gt;AppModule -->
<g id="edge2" class="edge">
<title>BackOfficeModule&#45;&gt;AppModule</title>
<path fill="none" stroke="black" d="M316,-84.91C316,-84.91 316,-103.79 316,-103.79"/>
<polygon fill="black" stroke="black" points="312.5,-103.79 316,-113.79 319.5,-103.79 312.5,-103.79"/>
</g>
<!-- PublicModule -->
<g id="node4" class="node">
<title>PublicModule</title>
<polygon fill="#8dd3c7" stroke="black" points="235.83,-84.8 232.83,-88.8 211.83,-88.8 208.83,-84.8 140.17,-84.8 140.17,-48.8 235.83,-48.8 235.83,-84.8"/>
<text text-anchor="middle" x="188" y="-62.6" font-family="Times,serif" font-size="14.00">PublicModule</text>
</g>
<!-- PublicModule&#45;&gt;AppModule -->
<g id="edge3" class="edge">
<title>PublicModule&#45;&gt;AppModule</title>
<path fill="none" stroke="black" d="M188,-84.82C188,-102.17 188,-125.8 188,-125.8 188,-125.8 264.09,-125.8 264.09,-125.8"/>
<polygon fill="black" stroke="black" points="264.09,-129.3 274.09,-125.8 264.09,-122.3 264.09,-129.3"/>
</g>
<!-- SharedModule -->
<g id="node5" class="node">
<title>SharedModule</title>
<polygon fill="#8dd3c7" stroke="black" points="122.43,-84.8 119.43,-88.8 98.43,-88.8 95.43,-84.8 23.57,-84.8 23.57,-48.8 122.43,-48.8 122.43,-84.8"/>
<text text-anchor="middle" x="73" y="-62.6" font-family="Times,serif" font-size="14.00">SharedModule</text>
</g>
<!-- SharedModule&#45;&gt;AppModule -->
<g id="edge4" class="edge">
<title>SharedModule&#45;&gt;AppModule</title>
<path fill="none" stroke="black" d="M73,-85.08C73,-106.12 73,-137.8 73,-137.8 73,-137.8 264.23,-137.8 264.23,-137.8"/>
<polygon fill="black" stroke="black" points="264.23,-141.3 274.23,-137.8 264.23,-134.3 264.23,-141.3"/>
</g>
<!-- TokenInterceptor -->
<g id="node7" class="node">
<title>TokenInterceptor</title>
<ellipse fill="#fdb462" stroke="black" cx="610" cy="-66.8" rx="78.13" ry="18"/>
<text text-anchor="middle" x="610" y="-62.6" font-family="Times,serif" font-size="14.00">TokenInterceptor</text>
</g>
<!-- TokenInterceptor&#45;&gt;AppModule -->
<g id="edge6" class="edge">
<title>TokenInterceptor&#45;&gt;AppModule</title>
<path fill="none" stroke="black" d="M610,-85.08C610,-106.12 610,-137.8 610,-137.8 610,-137.8 367.81,-137.8 367.81,-137.8"/>
<polygon fill="black" stroke="black" points="367.81,-134.3 357.81,-137.8 367.81,-141.3 367.81,-134.3"/>
</g>
</g>
</svg>
