<?xml version="1.0" encoding="UTF-8" standalone="no"?>
<!DOCTYPE svg PUBLIC "-//W3C//DTD SVG 1.1//EN"
 "http://www.w3.org/Graphics/SVG/1.1/DTD/svg11.dtd">
<!-- Generated by graphviz version 5.0.0 (20220707.1540)
 -->
<!-- Title: dependencies Pages: 1 -->
<svg width="619pt" height="247pt"
 viewBox="0.00 0.00 619.00 246.80" xmlns="http://www.w3.org/2000/svg" xmlns:xlink="http://www.w3.org/1999/xlink">
<g id="graph0" class="graph" transform="scale(1 1) rotate(0) translate(4 242.8)">
<title>dependencies</title>
<polygon fill="white" stroke="transparent" points="-4,4 -4,-242.8 615,-242.8 615,4 -4,4"/>
<text text-anchor="middle" x="305.5" y="-8.2" font-family="sans-serif" font-size="14.00">dependencies</text>
<g id="clust1" class="cluster">
<title>cluster_BackOfficeModule</title>
<polygon fill="none" stroke="black" stroke-dasharray="1,5" points="8,-32.8 8,-230.8 603,-230.8 603,-32.8 8,-32.8"/>
</g>
<g id="clust7" class="cluster">
<title>cluster_BackOfficeModule_exports</title>
<polygon fill="none" stroke="black" points="71,-170.8 71,-222.8 539,-222.8 539,-170.8 71,-170.8"/>
</g>
<g id="clust6" class="cluster">
<title>cluster_BackOfficeModule_imports</title>
<polygon fill="none" stroke="black" points="481,-40.8 481,-92.8 595,-92.8 595,-40.8 481,-40.8"/>
</g>
<g id="clust2" class="cluster">
<title>cluster_BackOfficeModule_declarations</title>
<polygon fill="none" stroke="black" points="16,-40.8 16,-92.8 473,-92.8 473,-40.8 16,-40.8"/>
</g>
<!-- AddLivreComponent -->
<g id="node1" class="node">
<title>AddLivreComponent</title>
<polygon fill="#ffffb3" stroke="black" points="464.76,-84.8 329.24,-84.8 329.24,-48.8 464.76,-48.8 464.76,-84.8"/>
<text text-anchor="middle" x="397" y="-62.6" font-family="Times,serif" font-size="14.00">AddLivreComponent</text>
</g>
<!-- BackOfficeModule -->
<g id="node4" class="node">
<title>BackOfficeModule</title>
<polygon fill="#8dd3c7" stroke="black" points="375.07,-149.8 372.07,-153.8 351.07,-153.8 348.07,-149.8 250.93,-149.8 250.93,-113.8 375.07,-113.8 375.07,-149.8"/>
<text text-anchor="middle" x="313" y="-127.6" font-family="Times,serif" font-size="14.00">BackOfficeModule</text>
</g>
<!-- AddLivreComponent&#45;&gt;BackOfficeModule -->
<g id="edge1" class="edge">
<title>AddLivreComponent&#45;&gt;BackOfficeModule</title>
<path fill="none" stroke="black" d="M352.08,-84.91C352.08,-84.91 352.08,-103.79 352.08,-103.79"/>
<polygon fill="black" stroke="black" points="348.58,-103.79 352.08,-113.79 355.58,-103.79 348.58,-103.79"/>
</g>
<!-- LivresComponent -->
<g id="node2" class="node">
<title>LivresComponent</title>
<polygon fill="#ffffb3" stroke="black" points="311.6,-84.8 194.4,-84.8 194.4,-48.8 311.6,-48.8 311.6,-84.8"/>
<text text-anchor="middle" x="253" y="-62.6" font-family="Times,serif" font-size="14.00">LivresComponent</text>
</g>
<!-- LivresComponent&#45;&gt;BackOfficeModule -->
<g id="edge2" class="edge">
<title>LivresComponent&#45;&gt;BackOfficeModule</title>
<path fill="none" stroke="black" d="M281.26,-84.91C281.26,-84.91 281.26,-103.79 281.26,-103.79"/>
<polygon fill="black" stroke="black" points="277.76,-103.79 281.26,-113.79 284.76,-103.79 277.76,-103.79"/>
</g>
<!-- UpdateLivreComponent -->
<g id="node3" class="node">
<title>UpdateLivreComponent</title>
<polygon fill="#ffffb3" stroke="black" points="176.08,-84.8 23.92,-84.8 23.92,-48.8 176.08,-48.8 176.08,-84.8"/>
<text text-anchor="middle" x="100" y="-62.6" font-family="Times,serif" font-size="14.00">UpdateLivreComponent</text>
</g>
<!-- UpdateLivreComponent&#45;&gt;BackOfficeModule -->
<g id="edge3" class="edge">
<title>UpdateLivreComponent&#45;&gt;BackOfficeModule</title>
<path fill="none" stroke="black" d="M127.62,-84.82C127.62,-102.17 127.62,-125.8 127.62,-125.8 127.62,-125.8 240.76,-125.8 240.76,-125.8"/>
<polygon fill="black" stroke="black" points="240.76,-129.3 250.76,-125.8 240.76,-122.3 240.76,-129.3"/>
</g>
<!-- AddLivreComponent  -->
<g id="node6" class="node">
<title>AddLivreComponent </title>
<polygon fill="#fb8072" stroke="black" points="530.76,-214.8 391.24,-214.8 391.24,-178.8 530.76,-178.8 530.76,-214.8"/>
<text text-anchor="middle" x="461" y="-192.6" font-family="Times,serif" font-size="14.00">AddLivreComponent </text>
</g>
<!-- BackOfficeModule&#45;&gt;AddLivreComponent  -->
<g id="edge5" class="edge">
<title>BackOfficeModule&#45;&gt;AddLivreComponent </title>
<path fill="none" stroke="black" stroke-dasharray="5,2" d="M375.28,-137.8C402.41,-137.8 428.12,-137.8 428.12,-137.8 428.12,-137.8 428.12,-168.78 428.12,-168.78"/>
<polygon fill="black" stroke="black" points="424.63,-168.78 428.12,-178.78 431.63,-168.78 424.63,-168.78"/>
</g>
<!-- LivresComponent  -->
<g id="node7" class="node">
<title>LivresComponent </title>
<polygon fill="#fb8072" stroke="black" points="373.1,-214.8 252.9,-214.8 252.9,-178.8 373.1,-178.8 373.1,-214.8"/>
<text text-anchor="middle" x="313" y="-192.6" font-family="Times,serif" font-size="14.00">LivresComponent </text>
</g>
<!-- BackOfficeModule&#45;&gt;LivresComponent  -->
<g id="edge6" class="edge">
<title>BackOfficeModule&#45;&gt;LivresComponent </title>
<path fill="none" stroke="black" stroke-dasharray="5,2" d="M313,-149.91C313,-149.91 313,-168.79 313,-168.79"/>
<polygon fill="black" stroke="black" points="309.5,-168.79 313,-178.79 316.5,-168.79 309.5,-168.79"/>
</g>
<!-- UpdateLivreComponent  -->
<g id="node8" class="node">
<title>UpdateLivreComponent </title>
<polygon fill="#fb8072" stroke="black" points="234.58,-214.8 79.42,-214.8 79.42,-178.8 234.58,-178.8 234.58,-214.8"/>
<text text-anchor="middle" x="157" y="-192.6" font-family="Times,serif" font-size="14.00">UpdateLivreComponent </text>
</g>
<!-- BackOfficeModule&#45;&gt;UpdateLivreComponent  -->
<g id="edge7" class="edge">
<title>BackOfficeModule&#45;&gt;UpdateLivreComponent </title>
<path fill="none" stroke="black" stroke-dasharray="5,2" d="M250.69,-137.8C231.17,-137.8 214.62,-137.8 214.62,-137.8 214.62,-137.8 214.62,-168.78 214.62,-168.78"/>
<polygon fill="black" stroke="black" points="211.12,-168.78 214.62,-178.78 218.12,-168.78 211.12,-168.78"/>
</g>
<!-- SharedModule -->
<g id="node5" class="node">
<title>SharedModule</title>
<polygon fill="#8dd3c7" stroke="black" points="587.43,-84.8 584.43,-88.8 563.43,-88.8 560.43,-84.8 488.57,-84.8 488.57,-48.8 587.43,-48.8 587.43,-84.8"/>
<text text-anchor="middle" x="538" y="-62.6" font-family="Times,serif" font-size="14.00">SharedModule</text>
</g>
<!-- SharedModule&#45;&gt;BackOfficeModule -->
<g id="edge4" class="edge">
<title>SharedModule&#45;&gt;BackOfficeModule</title>
<path fill="none" stroke="black" d="M509.71,-84.82C509.71,-102.17 509.71,-125.8 509.71,-125.8 509.71,-125.8 385.24,-125.8 385.24,-125.8"/>
<polygon fill="black" stroke="black" points="385.24,-122.3 375.24,-125.8 385.24,-129.3 385.24,-122.3"/>
</g>
</g>
</svg>
