<?xml version="1.0" encoding="UTF-8" standalone="no"?>
<!DOCTYPE svg PUBLIC "-//W3C//DTD SVG 1.1//EN"
 "http://www.w3.org/Graphics/SVG/1.1/DTD/svg11.dtd">
<!-- Generated by graphviz version 5.0.0 (20220707.1540)
 -->
<!-- Title: dependencies Pages: 1 -->
<svg width="2809pt" height="247pt"
 viewBox="0.00 0.00 2809.00 246.80" xmlns="http://www.w3.org/2000/svg" xmlns:xlink="http://www.w3.org/1999/xlink">
<g id="graph0" class="graph" transform="scale(1 1) rotate(0) translate(4 242.8)">
<title>dependencies</title>
<polygon fill="white" stroke="transparent" points="-4,4 -4,-242.8 2805,-242.8 2805,4 -4,4"/>
<text text-anchor="middle" x="1400.5" y="-8.2" font-family="sans-serif" font-size="14.00">dependencies</text>
<g id="clust1" class="cluster">
<title>cluster_PublicModule</title>
<polygon fill="none" stroke="black" stroke-dasharray="1,5" points="8,-32.8 8,-230.8 2793,-230.8 2793,-32.8 8,-32.8"/>
</g>
<g id="clust2" class="cluster">
<title>cluster_PublicModule_declarations</title>
<polygon fill="none" stroke="black" points="138,-40.8 138,-92.8 2785,-92.8 2785,-40.8 138,-40.8"/>
</g>
<g id="clust20" class="cluster">
<title>cluster_PublicModule_imports</title>
<polygon fill="none" stroke="black" points="16,-40.8 16,-92.8 130,-92.8 130,-40.8 16,-40.8"/>
</g>
<g id="clust21" class="cluster">
<title>cluster_PublicModule_exports</title>
<polygon fill="none" stroke="black" points="1174,-170.8 1174,-222.8 1455,-222.8 1455,-170.8 1174,-170.8"/>
</g>
<!-- AccueilComponent -->
<g id="node1" class="node">
<title>AccueilComponent</title>
<polygon fill="#ffffb3" stroke="black" points="2777.36,-84.8 2652.64,-84.8 2652.64,-48.8 2777.36,-48.8 2777.36,-84.8"/>
<text text-anchor="middle" x="2715" y="-62.6" font-family="Times,serif" font-size="14.00">AccueilComponent</text>
</g>
<!-- PublicModule -->
<g id="node18" class="node">
<title>PublicModule</title>
<polygon fill="#8dd3c7" stroke="black" points="1362.83,-149.8 1359.83,-153.8 1338.83,-153.8 1335.83,-149.8 1267.17,-149.8 1267.17,-113.8 1362.83,-113.8 1362.83,-149.8"/>
<text text-anchor="middle" x="1315" y="-127.6" font-family="Times,serif" font-size="14.00">PublicModule</text>
</g>
<!-- AccueilComponent&#45;&gt;PublicModule -->
<g id="edge1" class="edge">
<title>AccueilComponent&#45;&gt;PublicModule</title>
<path fill="none" stroke="black" d="M2715,-85.12C2715,-108.46 2715,-145.8 2715,-145.8 2715,-145.8 1372.79,-145.8 1372.79,-145.8"/>
<polygon fill="black" stroke="black" points="1372.79,-142.3 1362.79,-145.8 1372.79,-149.3 1372.79,-142.3"/>
</g>
<!-- CommentaireComponent -->
<g id="node2" class="node">
<title>CommentaireComponent</title>
<polygon fill="#ffffb3" stroke="black" points="2634.53,-84.8 2477.47,-84.8 2477.47,-48.8 2634.53,-48.8 2634.53,-84.8"/>
<text text-anchor="middle" x="2556" y="-62.6" font-family="Times,serif" font-size="14.00">CommentaireComponent</text>
</g>
<!-- CommentaireComponent&#45;&gt;PublicModule -->
<g id="edge2" class="edge">
<title>CommentaireComponent&#45;&gt;PublicModule</title>
<path fill="none" stroke="black" d="M2556,-84.96C2556,-107.15 2556,-141.8 2556,-141.8 2556,-141.8 1372.89,-141.8 1372.89,-141.8"/>
<polygon fill="black" stroke="black" points="1372.89,-138.3 1362.89,-141.8 1372.89,-145.3 1372.89,-138.3"/>
</g>
<!-- ConseilsLectureComponent -->
<g id="node3" class="node">
<title>ConseilsLectureComponent</title>
<polygon fill="#ffffb3" stroke="black" points="2459.3,-84.8 2286.7,-84.8 2286.7,-48.8 2459.3,-48.8 2459.3,-84.8"/>
<text text-anchor="middle" x="2373" y="-62.6" font-family="Times,serif" font-size="14.00">ConseilsLectureComponent</text>
</g>
<!-- ConseilsLectureComponent&#45;&gt;PublicModule -->
<g id="edge3" class="edge">
<title>ConseilsLectureComponent&#45;&gt;PublicModule</title>
<path fill="none" stroke="black" d="M2373,-85.08C2373,-106.12 2373,-137.8 2373,-137.8 2373,-137.8 1372.86,-137.8 1372.86,-137.8"/>
<polygon fill="black" stroke="black" points="1372.86,-134.3 1362.86,-137.8 1372.86,-141.3 1372.86,-134.3"/>
</g>
<!-- EvenementComponent -->
<g id="node4" class="node">
<title>EvenementComponent</title>
<polygon fill="#ffffb3" stroke="black" points="2269.3,-84.8 2124.7,-84.8 2124.7,-48.8 2269.3,-48.8 2269.3,-84.8"/>
<text text-anchor="middle" x="2197" y="-62.6" font-family="Times,serif" font-size="14.00">EvenementComponent</text>
</g>
<!-- EvenementComponent&#45;&gt;PublicModule -->
<g id="edge4" class="edge">
<title>EvenementComponent&#45;&gt;PublicModule</title>
<path fill="none" stroke="black" d="M2197,-85.11C2197,-104.95 2197,-133.8 2197,-133.8 2197,-133.8 1372.73,-133.8 1372.73,-133.8"/>
<polygon fill="black" stroke="black" points="1372.73,-130.3 1362.73,-133.8 1372.73,-137.3 1372.73,-130.3"/>
</g>
<!-- FooterComponent -->
<g id="node5" class="node">
<title>FooterComponent</title>
<polygon fill="#ffffb3" stroke="black" points="2106.88,-84.8 1989.12,-84.8 1989.12,-48.8 2106.88,-48.8 2106.88,-84.8"/>
<text text-anchor="middle" x="2048" y="-62.6" font-family="Times,serif" font-size="14.00">FooterComponent</text>
</g>
<!-- FooterComponent&#45;&gt;PublicModule -->
<g id="edge5" class="edge">
<title>FooterComponent&#45;&gt;PublicModule</title>
<path fill="none" stroke="black" d="M2048,-85.02C2048,-103.63 2048,-129.8 2048,-129.8 2048,-129.8 1372.81,-129.8 1372.81,-129.8"/>
<polygon fill="black" stroke="black" points="1372.81,-126.3 1362.81,-129.8 1372.81,-133.3 1372.81,-126.3"/>
</g>
<!-- HeaderComponent -->
<g id="node6" class="node">
<title>HeaderComponent</title>
<polygon fill="#ffffb3" stroke="black" points="1970.75,-84.8 1849.25,-84.8 1849.25,-48.8 1970.75,-48.8 1970.75,-84.8"/>
<text text-anchor="middle" x="1910" y="-62.6" font-family="Times,serif" font-size="14.00">HeaderComponent</text>
</g>
<!-- HeaderComponent&#45;&gt;PublicModule -->
<g id="edge6" class="edge">
<title>HeaderComponent&#45;&gt;PublicModule</title>
<path fill="none" stroke="black" d="M1910,-84.82C1910,-102.17 1910,-125.8 1910,-125.8 1910,-125.8 1372.69,-125.8 1372.69,-125.8"/>
<polygon fill="black" stroke="black" points="1372.69,-122.3 1362.69,-125.8 1372.69,-129.3 1372.69,-122.3"/>
</g>
<!-- InscriptionComponent -->
<g id="node7" class="node">
<title>InscriptionComponent</title>
<polygon fill="#ffffb3" stroke="black" points="1830.99,-84.8 1689.01,-84.8 1689.01,-48.8 1830.99,-48.8 1830.99,-84.8"/>
<text text-anchor="middle" x="1760" y="-62.6" font-family="Times,serif" font-size="14.00">InscriptionComponent</text>
</g>
<!-- InscriptionComponent&#45;&gt;PublicModule -->
<g id="edge7" class="edge">
<title>InscriptionComponent&#45;&gt;PublicModule</title>
<path fill="none" stroke="black" d="M1760,-84.81C1760,-100.85 1760,-121.8 1760,-121.8 1760,-121.8 1373.05,-121.8 1373.05,-121.8"/>
<polygon fill="black" stroke="black" points="1373.05,-118.3 1363.05,-121.8 1373.05,-125.3 1373.05,-118.3"/>
</g>
<!-- InscriptionEvenementComponent -->
<g id="node8" class="node">
<title>InscriptionEvenementComponent</title>
<polygon fill="#ffffb3" stroke="black" points="1671.46,-84.8 1466.54,-84.8 1466.54,-48.8 1671.46,-48.8 1671.46,-84.8"/>
<text text-anchor="middle" x="1569" y="-62.6" font-family="Times,serif" font-size="14.00">InscriptionEvenementComponent</text>
</g>
<!-- InscriptionEvenementComponent&#45;&gt;PublicModule -->
<g id="edge8" class="edge">
<title>InscriptionEvenementComponent&#45;&gt;PublicModule</title>
<path fill="none" stroke="black" d="M1569,-84.92C1569,-99.58 1569,-117.8 1569,-117.8 1569,-117.8 1372.78,-117.8 1372.78,-117.8"/>
<polygon fill="black" stroke="black" points="1372.78,-114.3 1362.78,-117.8 1372.78,-121.3 1372.78,-114.3"/>
</g>
<!-- InterditComponent -->
<g id="node9" class="node">
<title>InterditComponent</title>
<polygon fill="#ffffb3" stroke="black" points="1448.04,-84.8 1325.96,-84.8 1325.96,-48.8 1448.04,-48.8 1448.04,-84.8"/>
<text text-anchor="middle" x="1387" y="-62.6" font-family="Times,serif" font-size="14.00">InterditComponent</text>
</g>
<!-- InterditComponent&#45;&gt;PublicModule -->
<g id="edge9" class="edge">
<title>InterditComponent&#45;&gt;PublicModule</title>
<path fill="none" stroke="black" d="M1344.2,-84.91C1344.2,-84.91 1344.2,-103.79 1344.2,-103.79"/>
<polygon fill="black" stroke="black" points="1340.7,-103.79 1344.2,-113.79 1347.7,-103.79 1340.7,-103.79"/>
</g>
<!-- LibrairieComponent -->
<g id="node10" class="node">
<title>LibrairieComponent</title>
<polygon fill="#ffffb3" stroke="black" points="1308.3,-84.8 1177.7,-84.8 1177.7,-48.8 1308.3,-48.8 1308.3,-84.8"/>
<text text-anchor="middle" x="1243" y="-62.6" font-family="Times,serif" font-size="14.00">LibrairieComponent</text>
</g>
<!-- LibrairieComponent&#45;&gt;PublicModule -->
<g id="edge10" class="edge">
<title>LibrairieComponent&#45;&gt;PublicModule</title>
<path fill="none" stroke="black" d="M1287.74,-84.91C1287.74,-84.91 1287.74,-103.79 1287.74,-103.79"/>
<polygon fill="black" stroke="black" points="1284.24,-103.79 1287.74,-113.79 1291.24,-103.79 1284.24,-103.79"/>
</g>
<!-- LivreComponent -->
<g id="node11" class="node">
<title>LivreComponent</title>
<polygon fill="#ffffb3" stroke="black" points="1159.65,-84.8 1048.35,-84.8 1048.35,-48.8 1159.65,-48.8 1159.65,-84.8"/>
<text text-anchor="middle" x="1104" y="-62.6" font-family="Times,serif" font-size="14.00">LivreComponent</text>
</g>
<!-- LivreComponent&#45;&gt;PublicModule -->
<g id="edge11" class="edge">
<title>LivreComponent&#45;&gt;PublicModule</title>
<path fill="none" stroke="black" d="M1104,-84.92C1104,-99.58 1104,-117.8 1104,-117.8 1104,-117.8 1257.12,-117.8 1257.12,-117.8"/>
<polygon fill="black" stroke="black" points="1257.12,-121.3 1267.12,-117.8 1257.12,-114.3 1257.12,-121.3"/>
</g>
<!-- LoginComponent -->
<g id="node12" class="node">
<title>LoginComponent</title>
<polygon fill="#ffffb3" stroke="black" points="1030.27,-84.8 915.73,-84.8 915.73,-48.8 1030.27,-48.8 1030.27,-84.8"/>
<text text-anchor="middle" x="973" y="-62.6" font-family="Times,serif" font-size="14.00">LoginComponent</text>
</g>
<!-- LoginComponent&#45;&gt;PublicModule -->
<g id="edge12" class="edge">
<title>LoginComponent&#45;&gt;PublicModule</title>
<path fill="none" stroke="black" d="M973,-84.81C973,-100.85 973,-121.8 973,-121.8 973,-121.8 1257.09,-121.8 1257.09,-121.8"/>
<polygon fill="black" stroke="black" points="1257.09,-125.3 1267.09,-121.8 1257.09,-118.3 1257.09,-125.3"/>
</g>
<!-- PanierComponent -->
<g id="node13" class="node">
<title>PanierComponent</title>
<polygon fill="#ffffb3" stroke="black" points="897.6,-84.8 780.4,-84.8 780.4,-48.8 897.6,-48.8 897.6,-84.8"/>
<text text-anchor="middle" x="839" y="-62.6" font-family="Times,serif" font-size="14.00">PanierComponent</text>
</g>
<!-- PanierComponent&#45;&gt;PublicModule -->
<g id="edge13" class="edge">
<title>PanierComponent&#45;&gt;PublicModule</title>
<path fill="none" stroke="black" d="M839,-84.82C839,-102.17 839,-125.8 839,-125.8 839,-125.8 1257.18,-125.8 1257.18,-125.8"/>
<polygon fill="black" stroke="black" points="1257.18,-129.3 1267.18,-125.8 1257.18,-122.3 1257.18,-129.3"/>
</g>
<!-- ProduitComponent -->
<g id="node14" class="node">
<title>ProduitComponent</title>
<polygon fill="#ffffb3" stroke="black" points="762.06,-84.8 639.94,-84.8 639.94,-48.8 762.06,-48.8 762.06,-84.8"/>
<text text-anchor="middle" x="701" y="-62.6" font-family="Times,serif" font-size="14.00">ProduitComponent</text>
</g>
<!-- ProduitComponent&#45;&gt;PublicModule -->
<g id="edge14" class="edge">
<title>ProduitComponent&#45;&gt;PublicModule</title>
<path fill="none" stroke="black" d="M701,-85.02C701,-103.63 701,-129.8 701,-129.8 701,-129.8 1257.33,-129.8 1257.33,-129.8"/>
<polygon fill="black" stroke="black" points="1257.33,-133.3 1267.33,-129.8 1257.33,-126.3 1257.33,-133.3"/>
</g>
<!-- ProfilComponent -->
<g id="node15" class="node">
<title>ProfilComponent</title>
<polygon fill="#ffffb3" stroke="black" points="621.72,-84.8 508.28,-84.8 508.28,-48.8 621.72,-48.8 621.72,-84.8"/>
<text text-anchor="middle" x="565" y="-62.6" font-family="Times,serif" font-size="14.00">ProfilComponent</text>
</g>
<!-- ProfilComponent&#45;&gt;PublicModule -->
<g id="edge15" class="edge">
<title>ProfilComponent&#45;&gt;PublicModule</title>
<path fill="none" stroke="black" d="M565,-85.11C565,-104.95 565,-133.8 565,-133.8 565,-133.8 1257.23,-133.8 1257.23,-133.8"/>
<polygon fill="black" stroke="black" points="1257.23,-137.3 1267.23,-133.8 1257.23,-130.3 1257.23,-137.3"/>
</g>
<!-- RencontresComponent -->
<g id="node16" class="node">
<title>RencontresComponent</title>
<polygon fill="#ffffb3" stroke="black" points="490.31,-84.8 345.69,-84.8 345.69,-48.8 490.31,-48.8 490.31,-84.8"/>
<text text-anchor="middle" x="418" y="-62.6" font-family="Times,serif" font-size="14.00">RencontresComponent</text>
</g>
<!-- RencontresComponent&#45;&gt;PublicModule -->
<g id="edge16" class="edge">
<title>RencontresComponent&#45;&gt;PublicModule</title>
<path fill="none" stroke="black" d="M418,-85.08C418,-106.12 418,-137.8 418,-137.8 418,-137.8 1257.09,-137.8 1257.09,-137.8"/>
<polygon fill="black" stroke="black" points="1257.09,-141.3 1267.09,-137.8 1257.09,-134.3 1257.09,-141.3"/>
</g>
<!-- TeaserEvenementComponent -->
<g id="node17" class="node">
<title>TeaserEvenementComponent</title>
<polygon fill="#ffffb3" stroke="black" points="327.61,-84.8 146.39,-84.8 146.39,-48.8 327.61,-48.8 327.61,-84.8"/>
<text text-anchor="middle" x="237" y="-62.6" font-family="Times,serif" font-size="14.00">TeaserEvenementComponent</text>
</g>
<!-- TeaserEvenementComponent&#45;&gt;PublicModule -->
<g id="edge17" class="edge">
<title>TeaserEvenementComponent&#45;&gt;PublicModule</title>
<path fill="none" stroke="black" d="M237,-84.96C237,-107.15 237,-141.8 237,-141.8 237,-141.8 1257.29,-141.8 1257.29,-141.8"/>
<polygon fill="black" stroke="black" points="1257.29,-145.3 1267.29,-141.8 1257.29,-138.3 1257.29,-145.3"/>
</g>
<!-- FooterComponent  -->
<g id="node20" class="node">
<title>FooterComponent </title>
<polygon fill="#fb8072" stroke="black" points="1446.88,-214.8 1325.12,-214.8 1325.12,-178.8 1446.88,-178.8 1446.88,-214.8"/>
<text text-anchor="middle" x="1386" y="-192.6" font-family="Times,serif" font-size="14.00">FooterComponent </text>
</g>
<!-- PublicModule&#45;&gt;FooterComponent  -->
<g id="edge19" class="edge">
<title>PublicModule&#45;&gt;FooterComponent </title>
<path fill="none" stroke="black" stroke-dasharray="5,2" d="M1343.99,-149.91C1343.99,-149.91 1343.99,-168.79 1343.99,-168.79"/>
<polygon fill="black" stroke="black" points="1340.49,-168.79 1343.99,-178.79 1347.49,-168.79 1340.49,-168.79"/>
</g>
<!-- HeaderComponent  -->
<g id="node21" class="node">
<title>HeaderComponent </title>
<polygon fill="#fb8072" stroke="black" points="1307.75,-214.8 1182.25,-214.8 1182.25,-178.8 1307.75,-178.8 1307.75,-214.8"/>
<text text-anchor="middle" x="1245" y="-192.6" font-family="Times,serif" font-size="14.00">HeaderComponent </text>
</g>
<!-- PublicModule&#45;&gt;HeaderComponent  -->
<g id="edge20" class="edge">
<title>PublicModule&#45;&gt;HeaderComponent </title>
<path fill="none" stroke="black" stroke-dasharray="5,2" d="M1287.48,-149.91C1287.48,-149.91 1287.48,-168.79 1287.48,-168.79"/>
<polygon fill="black" stroke="black" points="1283.98,-168.79 1287.48,-178.79 1290.98,-168.79 1283.98,-168.79"/>
</g>
<!-- SharedModule -->
<g id="node19" class="node">
<title>SharedModule</title>
<polygon fill="#8dd3c7" stroke="black" points="122.43,-84.8 119.43,-88.8 98.43,-88.8 95.43,-84.8 23.57,-84.8 23.57,-48.8 122.43,-48.8 122.43,-84.8"/>
<text text-anchor="middle" x="73" y="-62.6" font-family="Times,serif" font-size="14.00">SharedModule</text>
</g>
<!-- SharedModule&#45;&gt;PublicModule -->
<g id="edge18" class="edge">
<title>SharedModule&#45;&gt;PublicModule</title>
<path fill="none" stroke="black" d="M73,-85.12C73,-108.46 73,-145.8 73,-145.8 73,-145.8 1257.07,-145.8 1257.07,-145.8"/>
<polygon fill="black" stroke="black" points="1257.07,-149.3 1267.07,-145.8 1257.07,-142.3 1257.07,-149.3"/>
</g>
</g>
</svg>
